<?xml version="1.0" standalone="no"?>
<!DOCTYPE svg PUBLIC "-//W3C//DTD SVG 20010904//EN"
 "http://www.w3.org/TR/2001/REC-SVG-20010904/DTD/svg10.dtd">
<svg version="1.0" xmlns="http://www.w3.org/2000/svg"
 width="500.000000pt" height="500.000000pt" viewBox="0 0 500.000000 500.000000"
 preserveAspectRatio="xMidYMid meet">

<g transform="translate(0.000000,500.000000) scale(0.100000,-0.100000)"
fill="#000000" stroke="none">
<path d="M1173 3723 c9 -17 322 -556 665 -1146 197 -341 363 -620 367 -620 8
-2 251 404 732 1225 l198 338 163 0 164 0 -22 -37 c-133 -223 -1070 -1824
-1070 -1828 0 -3 53 -5 119 -5 l118 0 429 728 c235 400 510 867 611 1037 l183
310 -407 3 c-224 1 -410 -1 -414 -5 -4 -5 -106 -177 -227 -383 -498 -851 -559
-954 -568 -956 -5 -2 -148 236 -319 528 -170 291 -320 548 -333 569 l-23 39
163 0 163 0 194 -330 194 -330 59 101 c33 56 58 108 55 117 -2 9 -88 159 -190
332 l-185 315 -412 3 c-226 1 -409 -1 -407 -5z"/>
</g>
</svg>
